<mxfile host="app.diagrams.net" modified="2023-12-10T22:54:37.920Z" agent="Mozilla/5.0 (Macintosh; Intel Mac OS X 10_15_7) AppleWebKit/537.36 (KHTML, like Gecko) Chrome/120.0.0.0 Safari/537.36" etag="rLWb1vEyA_Y1S8N4rg8Z" version="22.1.7" type="device">
  <diagram id="JWHnhtLRqXC-iMxQm0CE" name="Page-1">
    <mxGraphModel dx="1026" dy="655" grid="1" gridSize="10" guides="1" tooltips="1" connect="1" arrows="1" fold="1" page="1" pageScale="1" pageWidth="850" pageHeight="1100" math="0" shadow="0">
      <root>
        <mxCell id="0" />
        <mxCell id="1" parent="0" />
        <mxCell id="SF9yVZtLqWXz6QmJXrsM-1" value="" style="rounded=0;whiteSpace=wrap;html=1;" parent="1" vertex="1">
          <mxGeometry x="210" y="240" width="470" height="140" as="geometry" />
        </mxCell>
        <mxCell id="SF9yVZtLqWXz6QmJXrsM-2" value="VQVAE" style="text;html=1;strokeColor=none;fillColor=none;align=center;verticalAlign=middle;whiteSpace=wrap;rounded=0;" parent="1" vertex="1">
          <mxGeometry x="210" y="240" width="60" height="30" as="geometry" />
        </mxCell>
        <mxCell id="SF9yVZtLqWXz6QmJXrsM-6" style="edgeStyle=orthogonalEdgeStyle;rounded=0;orthogonalLoop=1;jettySize=auto;html=1;exitX=1;exitY=0.5;exitDx=0;exitDy=0;" parent="1" source="SF9yVZtLqWXz6QmJXrsM-3" target="SF9yVZtLqWXz6QmJXrsM-4" edge="1">
          <mxGeometry relative="1" as="geometry" />
        </mxCell>
        <mxCell id="SF9yVZtLqWXz6QmJXrsM-3" value="Encoder&lt;br&gt;2D conv net" style="rounded=1;whiteSpace=wrap;html=1;fillColor=#ffe6cc;strokeColor=#d79b00;" parent="1" vertex="1">
          <mxGeometry x="220" y="280" width="120" height="60" as="geometry" />
        </mxCell>
        <mxCell id="SF9yVZtLqWXz6QmJXrsM-7" style="edgeStyle=orthogonalEdgeStyle;rounded=0;orthogonalLoop=1;jettySize=auto;html=1;exitX=1;exitY=0.5;exitDx=0;exitDy=0;entryX=0;entryY=0.5;entryDx=0;entryDy=0;" parent="1" source="SF9yVZtLqWXz6QmJXrsM-4" target="SF9yVZtLqWXz6QmJXrsM-5" edge="1">
          <mxGeometry relative="1" as="geometry" />
        </mxCell>
        <mxCell id="SF9yVZtLqWXz6QmJXrsM-13" style="edgeStyle=orthogonalEdgeStyle;rounded=0;orthogonalLoop=1;jettySize=auto;html=1;entryX=0.5;entryY=1;entryDx=0;entryDy=0;" parent="1" source="SF9yVZtLqWXz6QmJXrsM-4" target="SF9yVZtLqWXz6QmJXrsM-10" edge="1">
          <mxGeometry relative="1" as="geometry" />
        </mxCell>
        <mxCell id="SF9yVZtLqWXz6QmJXrsM-20" style="edgeStyle=orthogonalEdgeStyle;rounded=0;orthogonalLoop=1;jettySize=auto;html=1;entryX=0.5;entryY=1;entryDx=0;entryDy=0;" parent="1" source="SF9yVZtLqWXz6QmJXrsM-4" target="SF9yVZtLqWXz6QmJXrsM-14" edge="1">
          <mxGeometry relative="1" as="geometry">
            <Array as="points">
              <mxPoint x="495" y="250" />
              <mxPoint x="495" y="250" />
            </Array>
          </mxGeometry>
        </mxCell>
        <mxCell id="SF9yVZtLqWXz6QmJXrsM-24" style="edgeStyle=orthogonalEdgeStyle;rounded=0;orthogonalLoop=1;jettySize=auto;html=1;" parent="1" source="SF9yVZtLqWXz6QmJXrsM-4" target="SF9yVZtLqWXz6QmJXrsM-25" edge="1">
          <mxGeometry relative="1" as="geometry">
            <mxPoint x="440" y="410" as="targetPoint" />
          </mxGeometry>
        </mxCell>
        <mxCell id="SF9yVZtLqWXz6QmJXrsM-4" value="VectorQuantizer" style="rounded=1;whiteSpace=wrap;html=1;fillColor=#dae8fc;strokeColor=#6c8ebf;" parent="1" vertex="1">
          <mxGeometry x="380" y="280" width="120" height="60" as="geometry" />
        </mxCell>
        <mxCell id="SF9yVZtLqWXz6QmJXrsM-26" style="edgeStyle=orthogonalEdgeStyle;rounded=0;orthogonalLoop=1;jettySize=auto;html=1;entryX=0.5;entryY=0;entryDx=0;entryDy=0;" parent="1" source="SF9yVZtLqWXz6QmJXrsM-5" target="SF9yVZtLqWXz6QmJXrsM-23" edge="1">
          <mxGeometry relative="1" as="geometry" />
        </mxCell>
        <mxCell id="SF9yVZtLqWXz6QmJXrsM-5" value="Decoder&lt;br&gt;2D Conv net" style="rounded=1;whiteSpace=wrap;html=1;fillColor=#d5e8d4;strokeColor=#82b366;" parent="1" vertex="1">
          <mxGeometry x="540" y="280" width="120" height="60" as="geometry" />
        </mxCell>
        <mxCell id="SF9yVZtLqWXz6QmJXrsM-28" style="edgeStyle=orthogonalEdgeStyle;rounded=0;orthogonalLoop=1;jettySize=auto;html=1;entryX=0.5;entryY=1;entryDx=0;entryDy=0;" parent="1" source="SF9yVZtLqWXz6QmJXrsM-8" target="SF9yVZtLqWXz6QmJXrsM-3" edge="1">
          <mxGeometry relative="1" as="geometry" />
        </mxCell>
        <mxCell id="SF9yVZtLqWXz6QmJXrsM-8" value="Input" style="text;html=1;strokeColor=none;fillColor=none;align=center;verticalAlign=middle;whiteSpace=wrap;rounded=0;" parent="1" vertex="1">
          <mxGeometry x="245" y="395" width="70" height="30" as="geometry" />
        </mxCell>
        <mxCell id="SF9yVZtLqWXz6QmJXrsM-10" value="Embedding space" style="ellipse;whiteSpace=wrap;html=1;fillColor=#e1d5e7;strokeColor=#9673a6;" parent="1" vertex="1">
          <mxGeometry x="330" y="100" width="80" height="80" as="geometry" />
        </mxCell>
        <mxCell id="SF9yVZtLqWXz6QmJXrsM-15" style="edgeStyle=orthogonalEdgeStyle;rounded=0;orthogonalLoop=1;jettySize=auto;html=1;entryX=1;entryY=0.5;entryDx=0;entryDy=0;" parent="1" source="SF9yVZtLqWXz6QmJXrsM-14" target="SF9yVZtLqWXz6QmJXrsM-10" edge="1">
          <mxGeometry relative="1" as="geometry" />
        </mxCell>
        <mxCell id="SF9yVZtLqWXz6QmJXrsM-19" style="edgeStyle=orthogonalEdgeStyle;rounded=0;orthogonalLoop=1;jettySize=auto;html=1;" parent="1" source="SF9yVZtLqWXz6QmJXrsM-14" target="SF9yVZtLqWXz6QmJXrsM-5" edge="1">
          <mxGeometry relative="1" as="geometry">
            <Array as="points">
              <mxPoint x="600" y="140" />
            </Array>
          </mxGeometry>
        </mxCell>
        <mxCell id="SF9yVZtLqWXz6QmJXrsM-14" value="Autoregressive &lt;br&gt;LSTM" style="rounded=1;whiteSpace=wrap;html=1;fillColor=#fff2cc;strokeColor=#d6b656;" parent="1" vertex="1">
          <mxGeometry x="440" y="110" width="110" height="60" as="geometry" />
        </mxCell>
        <mxCell id="SF9yVZtLqWXz6QmJXrsM-17" value="Embedding Sequence" style="text;html=1;strokeColor=none;fillColor=none;align=center;verticalAlign=middle;whiteSpace=wrap;rounded=0;" parent="1" vertex="1">
          <mxGeometry x="510" y="200" width="60" height="30" as="geometry" />
        </mxCell>
        <mxCell id="SF9yVZtLqWXz6QmJXrsM-21" value="Output&lt;br&gt;Embeddings" style="text;html=1;strokeColor=none;fillColor=none;align=center;verticalAlign=middle;whiteSpace=wrap;rounded=0;" parent="1" vertex="1">
          <mxGeometry x="620" y="180" width="60" height="30" as="geometry" />
        </mxCell>
        <mxCell id="SF9yVZtLqWXz6QmJXrsM-23" value="Reconstruction&lt;br&gt;Error, Samples" style="text;html=1;strokeColor=none;fillColor=none;align=center;verticalAlign=middle;whiteSpace=wrap;rounded=0;" parent="1" vertex="1">
          <mxGeometry x="570" y="394" width="60" height="30" as="geometry" />
        </mxCell>
        <mxCell id="SF9yVZtLqWXz6QmJXrsM-25" value="Commitment Loss" style="text;html=1;strokeColor=none;fillColor=none;align=center;verticalAlign=middle;whiteSpace=wrap;rounded=0;" parent="1" vertex="1">
          <mxGeometry x="410" y="395" width="60" height="30" as="geometry" />
        </mxCell>
      </root>
    </mxGraphModel>
  </diagram>
</mxfile>
